<mxfile host="Electron" agent="Mozilla/5.0 (Windows NT 10.0; Win64; x64) AppleWebKit/537.36 (KHTML, like Gecko) draw.io/27.0.9 Chrome/134.0.6998.205 Electron/35.4.0 Safari/537.36" version="27.0.9">
  <diagram name="Page-1" id="IhhaLBLQSBjwVbS7s0RT">
    <mxGraphModel dx="1426" dy="859" grid="1" gridSize="10" guides="1" tooltips="1" connect="1" arrows="1" fold="1" page="1" pageScale="1" pageWidth="850" pageHeight="1100" math="0" shadow="0">
      <root>
        <mxCell id="0" />
        <mxCell id="1" parent="0" />
        <mxCell id="1LchieLg5e5cuJbHelYH-35" value="Question-Guided Difference Tokenizer (QDT)" style="rounded=0;whiteSpace=wrap;html=1;labelPosition=center;verticalLabelPosition=top;align=center;verticalAlign=bottom;fillColor=#bac8d3;strokeColor=#23445d;" parent="1" vertex="1">
          <mxGeometry x="720" y="80" width="360" height="240" as="geometry" />
        </mxCell>
        <mxCell id="1LchieLg5e5cuJbHelYH-63" value="Loss Calculation" style="rounded=0;whiteSpace=wrap;html=1;labelPosition=center;verticalLabelPosition=top;align=center;verticalAlign=bottom;fillColor=#bac8d3;strokeColor=#23445d;" parent="1" vertex="1">
          <mxGeometry x="940" y="460" width="150" height="140" as="geometry" />
        </mxCell>
        <mxCell id="1LchieLg5e5cuJbHelYH-59" value="Lightweight Answer Predictor" style="rounded=0;whiteSpace=wrap;html=1;labelPosition=center;verticalLabelPosition=top;align=center;verticalAlign=bottom;fillColor=#bac8d3;strokeColor=#23445d;" parent="1" vertex="1">
          <mxGeometry x="720" y="360" width="200" height="240" as="geometry" />
        </mxCell>
        <mxCell id="1LchieLg5e5cuJbHelYH-15" value="Directional Residual Stack (DRS)" style="rounded=0;whiteSpace=wrap;html=1;labelPosition=center;verticalLabelPosition=top;align=center;verticalAlign=bottom;fillColor=#bac8d3;strokeColor=#23445d;" parent="1" vertex="1">
          <mxGeometry x="320" y="80" width="360" height="520" as="geometry" />
        </mxCell>
        <mxCell id="1LchieLg5e5cuJbHelYH-29" value="Residual Maps" style="rounded=0;whiteSpace=wrap;html=1;labelPosition=center;verticalLabelPosition=top;align=center;verticalAlign=bottom;fillColor=#e1d5e7;strokeColor=#9673a6;" parent="1" vertex="1">
          <mxGeometry x="500" y="110" width="90" height="470" as="geometry" />
        </mxCell>
        <mxCell id="1LchieLg5e5cuJbHelYH-14" value="Counterfactual Regularizer (CFA-Reg)" style="rounded=0;whiteSpace=wrap;html=1;labelPosition=center;verticalLabelPosition=top;align=center;verticalAlign=bottom;fillColor=#bac8d3;strokeColor=#23445d;" parent="1" vertex="1">
          <mxGeometry y="80" width="280" height="520" as="geometry" />
        </mxCell>
        <mxCell id="1LchieLg5e5cuJbHelYH-11" style="edgeStyle=orthogonalEdgeStyle;rounded=0;orthogonalLoop=1;jettySize=auto;html=1;entryX=0;entryY=0.5;entryDx=0;entryDy=0;exitX=1;exitY=0.5;exitDx=0;exitDy=0;" parent="1" source="1LchieLg5e5cuJbHelYH-1" target="1LchieLg5e5cuJbHelYH-8" edge="1">
          <mxGeometry relative="1" as="geometry">
            <mxPoint x="280" y="380" as="sourcePoint" />
          </mxGeometry>
        </mxCell>
        <mxCell id="1LchieLg5e5cuJbHelYH-1" value="Inputs" style="rounded=0;whiteSpace=wrap;html=1;labelPosition=center;verticalLabelPosition=top;align=center;verticalAlign=bottom;fillColor=#d0cee2;strokeColor=#56517e;" parent="1" vertex="1">
          <mxGeometry x="10" y="110" width="100" height="460" as="geometry" />
        </mxCell>
        <mxCell id="1LchieLg5e5cuJbHelYH-72" style="edgeStyle=orthogonalEdgeStyle;rounded=1;orthogonalLoop=1;jettySize=auto;html=1;exitX=1;exitY=0.5;exitDx=0;exitDy=0;entryX=0;entryY=0.5;entryDx=0;entryDy=0;curved=0;" parent="1" source="1LchieLg5e5cuJbHelYH-4" target="1LchieLg5e5cuJbHelYH-40" edge="1">
          <mxGeometry relative="1" as="geometry">
            <Array as="points">
              <mxPoint x="300" y="160" />
              <mxPoint x="300" y="40" />
              <mxPoint x="700" y="40" />
              <mxPoint x="700" y="115" />
            </Array>
          </mxGeometry>
        </mxCell>
        <mxCell id="1LchieLg5e5cuJbHelYH-4" value="Question&lt;div&gt;&lt;br&gt;&lt;/div&gt;&lt;div&gt;&lt;font face=&quot;Cambria&quot;&gt;&lt;i&gt;Q&lt;/i&gt;&lt;/font&gt;&lt;/div&gt;" style="rounded=1;whiteSpace=wrap;html=1;fillColor=#fff2cc;gradientColor=#ffd966;strokeColor=#d6b656;" parent="1" vertex="1">
          <mxGeometry x="20" y="120" width="80" height="80" as="geometry" />
        </mxCell>
        <mxCell id="1LchieLg5e5cuJbHelYH-53" style="edgeStyle=orthogonalEdgeStyle;rounded=1;orthogonalLoop=1;jettySize=auto;html=1;exitX=1;exitY=0.5;exitDx=0;exitDy=0;entryX=0.75;entryY=0;entryDx=0;entryDy=0;curved=0;" parent="1" source="1LchieLg5e5cuJbHelYH-5" target="1LchieLg5e5cuJbHelYH-52" edge="1">
          <mxGeometry relative="1" as="geometry">
            <Array as="points">
              <mxPoint x="300" y="280" />
              <mxPoint x="300" y="305" />
            </Array>
          </mxGeometry>
        </mxCell>
        <mxCell id="1LchieLg5e5cuJbHelYH-5" value="Reference&lt;div&gt;Image&lt;/div&gt;&lt;div&gt;&lt;br&gt;&lt;/div&gt;&lt;div&gt;&lt;font face=&quot;Cambria&quot;&gt;&lt;i&gt;I&lt;sub&gt;ref&lt;/sub&gt;&lt;/i&gt;&lt;/font&gt;&lt;/div&gt;" style="rounded=1;whiteSpace=wrap;html=1;fillColor=#fff2cc;gradientColor=#ffd966;strokeColor=#d6b656;" parent="1" vertex="1">
          <mxGeometry x="20" y="240" width="80" height="80" as="geometry" />
        </mxCell>
        <mxCell id="1LchieLg5e5cuJbHelYH-54" style="edgeStyle=orthogonalEdgeStyle;rounded=1;orthogonalLoop=1;jettySize=auto;html=1;exitX=1;exitY=0.5;exitDx=0;exitDy=0;entryX=0.25;entryY=0;entryDx=0;entryDy=0;curved=0;" parent="1" source="1LchieLg5e5cuJbHelYH-6" target="1LchieLg5e5cuJbHelYH-52" edge="1">
          <mxGeometry relative="1" as="geometry">
            <Array as="points">
              <mxPoint x="300" y="400" />
              <mxPoint x="300" y="375" />
            </Array>
          </mxGeometry>
        </mxCell>
        <mxCell id="1LchieLg5e5cuJbHelYH-6" value="Current&lt;br&gt;&lt;div&gt;Image&lt;/div&gt;&lt;div&gt;&lt;br&gt;&lt;/div&gt;&lt;div&gt;&lt;font face=&quot;Cambria&quot;&gt;&lt;i&gt;I&lt;sub style=&quot;&quot;&gt;&lt;font style=&quot;&quot;&gt;cur&lt;/font&gt;&lt;/sub&gt;&lt;/i&gt;&lt;/font&gt;&lt;/div&gt;" style="rounded=1;whiteSpace=wrap;html=1;fillColor=#fff2cc;gradientColor=#ffd966;strokeColor=#d6b656;" parent="1" vertex="1">
          <mxGeometry x="20" y="360" width="80" height="80" as="geometry" />
        </mxCell>
        <mxCell id="1LchieLg5e5cuJbHelYH-71" style="edgeStyle=orthogonalEdgeStyle;rounded=1;orthogonalLoop=1;jettySize=auto;html=1;exitX=0.5;exitY=1;exitDx=0;exitDy=0;entryX=0;entryY=0.5;entryDx=0;entryDy=0;curved=0;" parent="1" source="1LchieLg5e5cuJbHelYH-7" target="1LchieLg5e5cuJbHelYH-62" edge="1">
          <mxGeometry relative="1" as="geometry">
            <Array as="points">
              <mxPoint x="60" y="620" />
              <mxPoint x="700" y="620" />
              <mxPoint x="700" y="550" />
            </Array>
          </mxGeometry>
        </mxCell>
        <mxCell id="1LchieLg5e5cuJbHelYH-7" value="Ground&lt;div&gt;Truth&lt;br&gt;&lt;div&gt;&lt;br&gt;&lt;/div&gt;&lt;div&gt;&lt;i&gt;&lt;font face=&quot;Cambria&quot;&gt;A&lt;sub&gt;gt&lt;/sub&gt;&lt;/font&gt;&lt;/i&gt;&lt;/div&gt;&lt;/div&gt;" style="rounded=1;whiteSpace=wrap;html=1;fillColor=#fff2cc;gradientColor=#ffd966;strokeColor=#d6b656;" parent="1" vertex="1">
          <mxGeometry x="20" y="480" width="80" height="80" as="geometry" />
        </mxCell>
        <mxCell id="1LchieLg5e5cuJbHelYH-8" value="&lt;font style=&quot;font-size: 10px;&quot;&gt;Create Counterfactuals&lt;/font&gt;&lt;div&gt;&lt;font style=&quot;font-size: 10px;&quot;&gt;(Swap Images,&amp;nbsp;&lt;/font&gt;&lt;/div&gt;&lt;div&gt;&lt;font style=&quot;font-size: 10px;&quot;&gt;Negate Question)&lt;/font&gt;&lt;/div&gt;" style="rounded=0;whiteSpace=wrap;html=1;fillColor=#ffcd28;fillStyle=auto;gradientColor=#ffa500;strokeColor=#d79b00;" parent="1" vertex="1">
          <mxGeometry x="150" y="310" width="120" height="60" as="geometry" />
        </mxCell>
        <mxCell id="1LchieLg5e5cuJbHelYH-33" style="edgeStyle=orthogonalEdgeStyle;rounded=1;orthogonalLoop=1;jettySize=auto;html=1;exitX=0.5;exitY=1;exitDx=0;exitDy=0;entryX=0.25;entryY=0;entryDx=0;entryDy=0;curved=0;" parent="1" source="1LchieLg5e5cuJbHelYH-19" target="1LchieLg5e5cuJbHelYH-22" edge="1">
          <mxGeometry relative="1" as="geometry">
            <Array as="points">
              <mxPoint x="600" y="495" />
              <mxPoint x="600" y="383" />
            </Array>
          </mxGeometry>
        </mxCell>
        <mxCell id="1LchieLg5e5cuJbHelYH-19" value="&lt;font face=&quot;Cambria&quot;&gt;&lt;i&gt;R&lt;sub&gt;abs&lt;/sub&gt;&amp;nbsp;= &lt;/i&gt;|&lt;i&gt; f(I&lt;sub&gt;cur&lt;/sub&gt;) - f(I&lt;sub&gt;ref&lt;/sub&gt;) &lt;/i&gt;|&lt;/font&gt;" style="rounded=1;whiteSpace=wrap;html=1;rotation=-90;fillColor=#d5e8d4;gradientColor=#97d077;strokeColor=#82b366;" parent="1" vertex="1">
          <mxGeometry x="475" y="480" width="140" height="30" as="geometry" />
        </mxCell>
        <mxCell id="1LchieLg5e5cuJbHelYH-32" style="edgeStyle=orthogonalEdgeStyle;rounded=0;orthogonalLoop=1;jettySize=auto;html=1;exitX=0.5;exitY=1;exitDx=0;exitDy=0;entryX=0.5;entryY=0;entryDx=0;entryDy=0;" parent="1" source="1LchieLg5e5cuJbHelYH-20" target="1LchieLg5e5cuJbHelYH-22" edge="1">
          <mxGeometry relative="1" as="geometry" />
        </mxCell>
        <mxCell id="1LchieLg5e5cuJbHelYH-20" value="&lt;i&gt;&lt;font face=&quot;Cambria&quot;&gt;R&lt;sub style=&quot;&quot;&gt;&lt;span style=&quot;font-size: 8.33333px;&quot;&gt;&amp;nbsp;&lt;/span&gt;&lt;font&gt;-&lt;/font&gt;&lt;/sub&gt;&amp;nbsp;= f(I&lt;sub&gt;ref&lt;/sub&gt;) - f(I&lt;sub&gt;cur&lt;/sub&gt;)&lt;/font&gt;&lt;/i&gt;" style="rounded=1;whiteSpace=wrap;html=1;rotation=-90;fillColor=#d5e8d4;gradientColor=#97d077;strokeColor=#82b366;" parent="1" vertex="1">
          <mxGeometry x="475" y="330" width="140" height="30" as="geometry" />
        </mxCell>
        <mxCell id="1LchieLg5e5cuJbHelYH-31" style="edgeStyle=orthogonalEdgeStyle;rounded=1;orthogonalLoop=1;jettySize=auto;html=1;exitX=0.5;exitY=1;exitDx=0;exitDy=0;entryX=0.75;entryY=0;entryDx=0;entryDy=0;curved=0;" parent="1" source="1LchieLg5e5cuJbHelYH-21" target="1LchieLg5e5cuJbHelYH-22" edge="1">
          <mxGeometry relative="1" as="geometry">
            <Array as="points">
              <mxPoint x="600" y="195" />
              <mxPoint x="600" y="308" />
            </Array>
          </mxGeometry>
        </mxCell>
        <mxCell id="1LchieLg5e5cuJbHelYH-21" value="&lt;i&gt;&lt;font face=&quot;Cambria&quot;&gt;R&lt;sub style=&quot;&quot;&gt;&lt;span style=&quot;font-size: 8.33333px;&quot;&gt;&amp;nbsp;&lt;/span&gt;&lt;font&gt;+&lt;/font&gt;&lt;/sub&gt;&amp;nbsp;= f(I&lt;sub&gt;cur&lt;/sub&gt;) - f(I&lt;sub&gt;ref&lt;/sub&gt;)&lt;/font&gt;&lt;/i&gt;" style="rounded=1;whiteSpace=wrap;html=1;rotation=-90;fillColor=#d5e8d4;gradientColor=#97d077;strokeColor=#82b366;" parent="1" vertex="1">
          <mxGeometry x="475" y="180" width="140" height="30" as="geometry" />
        </mxCell>
        <mxCell id="1LchieLg5e5cuJbHelYH-22" value="Concantinate &lt;font face=&quot;Cambria&quot;&gt;&lt;i&gt;R&lt;sub style=&quot;&quot;&gt;&lt;font style=&quot;font-size: 6.94444px;&quot;&gt;&amp;nbsp;&lt;/font&gt;&lt;font&gt;+&lt;/font&gt;&lt;/sub&gt;&amp;nbsp;R&lt;sub style=&quot;&quot;&gt;&lt;font style=&quot;font-size: 8px;&quot;&gt;&amp;nbsp;&lt;/font&gt;&lt;font&gt;-&lt;/font&gt;&lt;/sub&gt;&amp;nbsp;&amp;nbsp;R&lt;sub&gt;abs&lt;/sub&gt;&amp;nbsp;&lt;/i&gt;&lt;/font&gt;" style="rounded=0;whiteSpace=wrap;html=1;rotation=-90;fillColor=#f5f5f5;gradientColor=#b3b3b3;strokeColor=#666666;" parent="1" vertex="1">
          <mxGeometry x="570" y="330" width="150" height="30" as="geometry" />
        </mxCell>
        <mxCell id="1LchieLg5e5cuJbHelYH-38" style="edgeStyle=orthogonalEdgeStyle;rounded=1;orthogonalLoop=1;jettySize=auto;html=1;exitX=0.5;exitY=1;exitDx=0;exitDy=0;entryX=0.5;entryY=0;entryDx=0;entryDy=0;curved=0;" parent="1" source="1LchieLg5e5cuJbHelYH-23" target="1LchieLg5e5cuJbHelYH-19" edge="1">
          <mxGeometry relative="1" as="geometry">
            <Array as="points">
              <mxPoint x="490" y="460" />
              <mxPoint x="490" y="495" />
            </Array>
          </mxGeometry>
        </mxCell>
        <mxCell id="1LchieLg5e5cuJbHelYH-23" value="&lt;font face=&quot;Cambria&quot;&gt;&lt;i&gt;f(I&lt;sub&gt;cur&lt;/sub&gt;) , f(I&lt;sub&gt;ref&lt;/sub&gt;)&lt;/i&gt;&lt;/font&gt;" style="rounded=0;whiteSpace=wrap;html=1;dashed=1;rotation=-90;fillColor=#f5f5f5;gradientColor=#b3b3b3;strokeColor=#666666;" parent="1" vertex="1">
          <mxGeometry x="405" y="450" width="110" height="20" as="geometry" />
        </mxCell>
        <mxCell id="1LchieLg5e5cuJbHelYH-36" style="edgeStyle=orthogonalEdgeStyle;rounded=1;orthogonalLoop=1;jettySize=auto;html=1;exitX=0.5;exitY=1;exitDx=0;exitDy=0;entryX=0.5;entryY=0;entryDx=0;entryDy=0;curved=0;" parent="1" source="1LchieLg5e5cuJbHelYH-24" target="1LchieLg5e5cuJbHelYH-21" edge="1">
          <mxGeometry relative="1" as="geometry">
            <Array as="points">
              <mxPoint x="490" y="250" />
              <mxPoint x="490" y="195" />
            </Array>
          </mxGeometry>
        </mxCell>
        <mxCell id="1LchieLg5e5cuJbHelYH-24" value="&lt;font face=&quot;Cambria&quot;&gt;&lt;i&gt;f(I&lt;sub&gt;ref&lt;/sub&gt;)&lt;/i&gt;&lt;/font&gt;" style="rounded=0;whiteSpace=wrap;html=1;dashed=1;rotation=-90;fillColor=#f5f5f5;gradientColor=#b3b3b3;strokeColor=#666666;" parent="1" vertex="1">
          <mxGeometry x="430" y="240" width="60" height="20" as="geometry" />
        </mxCell>
        <mxCell id="1LchieLg5e5cuJbHelYH-37" style="edgeStyle=orthogonalEdgeStyle;rounded=1;orthogonalLoop=1;jettySize=auto;html=1;exitX=0.5;exitY=1;exitDx=0;exitDy=0;entryX=0.5;entryY=0;entryDx=0;entryDy=0;curved=0;" parent="1" source="1LchieLg5e5cuJbHelYH-25" target="1LchieLg5e5cuJbHelYH-20" edge="1">
          <mxGeometry relative="1" as="geometry">
            <Array as="points">
              <mxPoint x="490" y="340" />
              <mxPoint x="490" y="345" />
            </Array>
          </mxGeometry>
        </mxCell>
        <mxCell id="1LchieLg5e5cuJbHelYH-25" value="&lt;font face=&quot;Cambria&quot;&gt;&lt;i&gt;f(I&lt;sub&gt;cur&lt;/sub&gt;)&lt;/i&gt;&lt;/font&gt;" style="rounded=0;whiteSpace=wrap;html=1;dashed=1;rotation=-90;fillColor=#f5f5f5;gradientColor=#b3b3b3;strokeColor=#666666;" parent="1" vertex="1">
          <mxGeometry x="430" y="330" width="60" height="20" as="geometry" />
        </mxCell>
        <mxCell id="1LchieLg5e5cuJbHelYH-44" style="edgeStyle=orthogonalEdgeStyle;rounded=1;orthogonalLoop=1;jettySize=auto;html=1;exitX=0.5;exitY=1;exitDx=0;exitDy=0;entryX=0.5;entryY=0;entryDx=0;entryDy=0;endArrow=none;startFill=0;curved=0;" parent="1" source="1LchieLg5e5cuJbHelYH-40" target="1LchieLg5e5cuJbHelYH-43" edge="1">
          <mxGeometry relative="1" as="geometry" />
        </mxCell>
        <mxCell id="1LchieLg5e5cuJbHelYH-40" value="Small Text Encoder (Frozen)" style="rounded=1;whiteSpace=wrap;html=1;rotation=0;fillColor=#dae8fc;gradientColor=#7ea6e0;strokeColor=#6c8ebf;" parent="1" vertex="1">
          <mxGeometry x="790" y="100" width="160" height="30" as="geometry" />
        </mxCell>
        <mxCell id="1LchieLg5e5cuJbHelYH-50" style="edgeStyle=orthogonalEdgeStyle;rounded=1;orthogonalLoop=1;jettySize=auto;html=1;exitX=0.25;exitY=1;exitDx=0;exitDy=0;entryX=0.5;entryY=0;entryDx=0;entryDy=0;curved=0;" parent="1" source="1LchieLg5e5cuJbHelYH-42" target="1LchieLg5e5cuJbHelYH-46" edge="1">
          <mxGeometry relative="1" as="geometry" />
        </mxCell>
        <mxCell id="1LchieLg5e5cuJbHelYH-51" style="edgeStyle=orthogonalEdgeStyle;rounded=1;orthogonalLoop=1;jettySize=auto;html=1;exitX=0.75;exitY=1;exitDx=0;exitDy=0;entryX=0.5;entryY=0;entryDx=0;entryDy=0;curved=0;" parent="1" source="1LchieLg5e5cuJbHelYH-42" target="1LchieLg5e5cuJbHelYH-49" edge="1">
          <mxGeometry relative="1" as="geometry" />
        </mxCell>
        <mxCell id="1LchieLg5e5cuJbHelYH-42" value="Cross-Attention &amp;amp; Top-k Selector" style="rounded=1;whiteSpace=wrap;html=1;rotation=0;fillColor=#dae8fc;gradientColor=#7ea6e0;strokeColor=#6c8ebf;" parent="1" vertex="1">
          <mxGeometry x="805" y="220" width="190" height="25" as="geometry" />
        </mxCell>
        <mxCell id="1LchieLg5e5cuJbHelYH-48" style="edgeStyle=orthogonalEdgeStyle;rounded=1;orthogonalLoop=1;jettySize=auto;html=1;exitX=0.5;exitY=1;exitDx=0;exitDy=0;entryX=0.75;entryY=0;entryDx=0;entryDy=0;curved=0;" parent="1" source="1LchieLg5e5cuJbHelYH-43" target="1LchieLg5e5cuJbHelYH-42" edge="1">
          <mxGeometry relative="1" as="geometry">
            <Array as="points">
              <mxPoint x="1000" y="200" />
              <mxPoint x="948" y="200" />
            </Array>
          </mxGeometry>
        </mxCell>
        <mxCell id="1LchieLg5e5cuJbHelYH-43" value="&lt;font style=&quot;&quot; face=&quot;Helvetica&quot;&gt;Embedded Question&lt;/font&gt;" style="rounded=0;whiteSpace=wrap;html=1;dashed=1;rotation=0;fillColor=#f5f5f5;gradientColor=#b3b3b3;strokeColor=#666666;" parent="1" vertex="1">
          <mxGeometry x="940" y="170" width="120" height="20" as="geometry" />
        </mxCell>
        <mxCell id="1LchieLg5e5cuJbHelYH-46" value="Evidence Heatmap" style="rounded=1;whiteSpace=wrap;html=1;rotation=0;fillColor=#e6d0de;gradientColor=#d5739d;strokeColor=#996185;" parent="1" vertex="1">
          <mxGeometry x="740" y="280" width="150" height="25" as="geometry" />
        </mxCell>
        <mxCell id="1LchieLg5e5cuJbHelYH-66" style="edgeStyle=orthogonalEdgeStyle;rounded=1;orthogonalLoop=1;jettySize=auto;html=1;exitX=0.5;exitY=1;exitDx=0;exitDy=0;curved=0;" parent="1" source="1LchieLg5e5cuJbHelYH-49" target="1LchieLg5e5cuJbHelYH-60" edge="1">
          <mxGeometry relative="1" as="geometry">
            <Array as="points">
              <mxPoint x="985" y="380" />
              <mxPoint x="820" y="380" />
            </Array>
          </mxGeometry>
        </mxCell>
        <mxCell id="1LchieLg5e5cuJbHelYH-49" value="k Difference Tokens" style="rounded=1;whiteSpace=wrap;html=1;rotation=0;fillColor=#d5e8d4;gradientColor=#97d077;strokeColor=#82b366;" parent="1" vertex="1">
          <mxGeometry x="910" y="280" width="150" height="25" as="geometry" />
        </mxCell>
        <mxCell id="1LchieLg5e5cuJbHelYH-55" style="edgeStyle=orthogonalEdgeStyle;rounded=1;orthogonalLoop=1;jettySize=auto;html=1;exitX=0.75;exitY=1;exitDx=0;exitDy=0;entryX=0.5;entryY=0;entryDx=0;entryDy=0;endArrow=none;startFill=0;curved=0;" parent="1" source="1LchieLg5e5cuJbHelYH-52" target="1LchieLg5e5cuJbHelYH-24" edge="1">
          <mxGeometry relative="1" as="geometry" />
        </mxCell>
        <mxCell id="1LchieLg5e5cuJbHelYH-56" style="edgeStyle=orthogonalEdgeStyle;rounded=1;orthogonalLoop=1;jettySize=auto;html=1;exitX=0.5;exitY=1;exitDx=0;exitDy=0;entryX=0.5;entryY=0;entryDx=0;entryDy=0;endArrow=none;startFill=0;curved=0;" parent="1" source="1LchieLg5e5cuJbHelYH-52" target="1LchieLg5e5cuJbHelYH-25" edge="1">
          <mxGeometry relative="1" as="geometry" />
        </mxCell>
        <mxCell id="1LchieLg5e5cuJbHelYH-57" style="edgeStyle=orthogonalEdgeStyle;rounded=1;orthogonalLoop=1;jettySize=auto;html=1;exitX=0.25;exitY=1;exitDx=0;exitDy=0;entryX=0.5;entryY=0;entryDx=0;entryDy=0;endArrow=none;startFill=0;curved=0;" parent="1" source="1LchieLg5e5cuJbHelYH-52" target="1LchieLg5e5cuJbHelYH-23" edge="1">
          <mxGeometry relative="1" as="geometry" />
        </mxCell>
        <mxCell id="1LchieLg5e5cuJbHelYH-52" value="Tiny Frozen Backbone" style="rounded=1;whiteSpace=wrap;html=1;rotation=-90;fillColor=#dae8fc;gradientColor=#7ea6e0;strokeColor=#6c8ebf;" parent="1" vertex="1">
          <mxGeometry x="310" y="310" width="140" height="60" as="geometry" />
        </mxCell>
        <mxCell id="1LchieLg5e5cuJbHelYH-69" style="edgeStyle=orthogonalEdgeStyle;rounded=0;orthogonalLoop=1;jettySize=auto;html=1;exitX=0.5;exitY=1;exitDx=0;exitDy=0;entryX=0.5;entryY=0;entryDx=0;entryDy=0;endArrow=none;startFill=0;" parent="1" source="1LchieLg5e5cuJbHelYH-60" target="1LchieLg5e5cuJbHelYH-61" edge="1">
          <mxGeometry relative="1" as="geometry" />
        </mxCell>
        <mxCell id="1LchieLg5e5cuJbHelYH-60" value="Frozen LM + LoRA Adapters" style="rounded=1;whiteSpace=wrap;html=1;fillColor=#dae8fc;gradientColor=#7ea6e0;strokeColor=#6c8ebf;" parent="1" vertex="1">
          <mxGeometry x="760" y="400" width="120" height="60" as="geometry" />
        </mxCell>
        <mxCell id="1LchieLg5e5cuJbHelYH-68" style="edgeStyle=orthogonalEdgeStyle;rounded=0;orthogonalLoop=1;jettySize=auto;html=1;exitX=0.5;exitY=1;exitDx=0;exitDy=0;entryX=0.5;entryY=0;entryDx=0;entryDy=0;" parent="1" source="1LchieLg5e5cuJbHelYH-61" target="1LchieLg5e5cuJbHelYH-62" edge="1">
          <mxGeometry relative="1" as="geometry" />
        </mxCell>
        <mxCell id="1LchieLg5e5cuJbHelYH-61" value="predicted answer" style="rounded=0;whiteSpace=wrap;html=1;dashed=1;fillColor=#f5f5f5;gradientColor=#b3b3b3;strokeColor=#666666;" parent="1" vertex="1">
          <mxGeometry x="770" y="480" width="100" height="20" as="geometry" />
        </mxCell>
        <mxCell id="1LchieLg5e5cuJbHelYH-70" style="edgeStyle=orthogonalEdgeStyle;rounded=1;orthogonalLoop=1;jettySize=auto;html=1;exitX=0.5;exitY=1;exitDx=0;exitDy=0;entryX=0.25;entryY=0;entryDx=0;entryDy=0;curved=0;" parent="1" source="1LchieLg5e5cuJbHelYH-62" target="1LchieLg5e5cuJbHelYH-64" edge="1">
          <mxGeometry relative="1" as="geometry">
            <Array as="points">
              <mxPoint x="820" y="620" />
              <mxPoint x="930" y="620" />
              <mxPoint x="930" y="500" />
              <mxPoint x="985" y="500" />
            </Array>
          </mxGeometry>
        </mxCell>
        <mxCell id="1LchieLg5e5cuJbHelYH-62" value="Generation Loss" style="rounded=1;whiteSpace=wrap;html=1;fillColor=#e6d0de;gradientColor=#d5739d;strokeColor=#996185;" parent="1" vertex="1">
          <mxGeometry x="760" y="520" width="120" height="60" as="geometry" />
        </mxCell>
        <mxCell id="1LchieLg5e5cuJbHelYH-64" value="Total Loss" style="rounded=1;whiteSpace=wrap;html=1;fillColor=#e6d0de;gradientColor=#d5739d;strokeColor=#996185;" parent="1" vertex="1">
          <mxGeometry x="955" y="520" width="120" height="60" as="geometry" />
        </mxCell>
        <mxCell id="eK5LEbHF7djAjE8bdfUn-3" style="edgeStyle=orthogonalEdgeStyle;rounded=1;orthogonalLoop=1;jettySize=auto;html=1;exitX=0.5;exitY=1;exitDx=0;exitDy=0;entryX=0.5;entryY=1;entryDx=0;entryDy=0;curved=0;" parent="1" source="eK5LEbHF7djAjE8bdfUn-2" target="1LchieLg5e5cuJbHelYH-64" edge="1">
          <mxGeometry relative="1" as="geometry">
            <Array as="points">
              <mxPoint x="190" y="640" />
              <mxPoint x="1015" y="640" />
            </Array>
          </mxGeometry>
        </mxCell>
        <mxCell id="eK5LEbHF7djAjE8bdfUn-2" value="Contrastive KL Loss" style="rounded=1;whiteSpace=wrap;html=1;fillColor=#fff2cc;gradientColor=#ffd966;strokeColor=#d6b656;" parent="1" vertex="1">
          <mxGeometry x="130" y="500" width="120" height="60" as="geometry" />
        </mxCell>
      </root>
    </mxGraphModel>
  </diagram>
</mxfile>
